<svg id="svg" version="1.1" width="400" height="400" viewBox="0 0 400 400" xmlns="http://www.w3.org/2000/svg" xmlns:xlink="http://www.w3.org/1999/xlink" ><g id="svgg"><path id="path0" d="M35.650 19.500 C 34.690 23.040,33.146 30.582,32.600 34.400 C 32.301 36.490,31.871 39.460,31.645 41.000 C 27.433 69.670,33.101 106.022,45.149 127.600 C 45.824 128.810,46.854 130.691,47.436 131.780 C 48.018 132.870,48.811 134.220,49.198 134.780 C 49.584 135.341,50.778 137.120,51.850 138.733 C 52.923 140.346,54.070 142.066,54.400 142.556 C 55.288 143.875,58.046 147.310,58.771 148.000 C 59.117 148.330,60.017 149.410,60.770 150.400 C 62.492 152.665,68.465 158.638,72.400 162.031 C 76.201 165.308,81.084 169.200,81.396 169.200 C 81.527 169.200,81.851 169.389,82.117 169.620 C 86.177 173.146,101.862 182.216,108.323 184.773 C 109.355 185.181,111.370 186.056,112.800 186.717 C 117.413 188.848,131.990 194.000,133.406 194.000 C 133.712 194.000,134.135 193.415,134.346 192.700 C 134.556 191.985,135.940 188.250,137.420 184.400 C 140.462 176.485,145.550 161.603,147.060 156.200 C 150.025 145.587,150.797 142.351,152.213 134.600 C 155.251 117.972,154.791 98.385,151.195 91.219 C 151.024 90.879,150.245 89.245,149.464 87.589 C 147.168 82.720,141.859 76.435,138.900 75.083 C 138.405 74.857,138.000 74.532,138.000 74.361 C 138.000 74.190,136.515 73.079,134.700 71.891 C 131.653 69.896,130.551 69.227,126.861 67.131 C 124.578 65.834,116.750 62.403,113.600 61.319 C 111.950 60.751,110.420 60.157,110.200 59.999 C 109.980 59.841,106.830 58.775,103.200 57.630 C 92.687 54.313,75.946 48.729,74.200 47.956 C 73.320 47.567,71.982 47.013,71.228 46.724 C 69.297 45.987,59.924 41.218,59.200 40.604 C 58.870 40.325,57.979 39.781,57.220 39.396 C 56.460 39.011,55.580 38.437,55.263 38.121 C 54.947 37.804,54.218 37.242,53.644 36.872 C 48.908 33.821,40.715 24.829,37.565 19.224 C 36.410 17.169,36.278 17.188,35.650 19.500 " stroke="none" fill="#45792e" fill-rule="evenodd"></path><path id="path1" d="M35.599 18.203 C 35.344 18.975,35.217 19.830,35.317 20.103 C 35.416 20.377,35.631 19.925,35.793 19.100 C 36.168 17.198,36.437 17.217,37.565 19.224 C 40.715 24.829,48.908 33.821,53.644 36.872 C 54.218 37.242,54.947 37.804,55.263 38.121 C 55.580 38.437,56.460 39.011,57.220 39.396 C 57.979 39.781,58.870 40.325,59.200 40.604 C 60.565 41.760,72.292 47.441,72.625 47.108 C 72.724 47.009,71.229 46.232,69.302 45.381 C 67.376 44.529,64.937 43.330,63.882 42.716 C 62.828 42.102,61.900 41.600,61.820 41.600 C 61.551 41.600,56.198 38.207,54.594 37.020 C 48.037 32.166,41.708 25.337,37.986 19.100 C 36.378 16.406,36.212 16.344,35.599 18.203 M34.631 21.800 C 34.484 22.460,34.192 23.651,33.982 24.446 C 33.772 25.242,33.616 26.322,33.636 26.846 C 33.656 27.371,34.010 26.360,34.423 24.600 C 34.836 22.840,35.112 21.220,35.036 21.000 C 34.961 20.780,34.778 21.140,34.631 21.800 M33.022 29.422 C 32.872 30.225,32.838 30.972,32.948 31.082 C 33.058 31.192,33.272 30.625,33.422 29.822 C 33.573 29.019,33.606 28.273,33.496 28.163 C 33.386 28.053,33.173 28.619,33.022 29.422 M32.201 34.263 C 32.058 35.329,31.774 37.178,31.571 38.373 C 31.367 39.569,31.222 41.099,31.250 41.773 C 31.286 42.650,31.391 42.429,31.621 41.000 C 32.310 36.697,32.790 32.656,32.629 32.495 C 32.536 32.403,32.343 33.198,32.201 34.263 M30.651 45.700 C 30.511 46.635,30.325 52.890,30.237 59.600 L 30.079 71.800 30.383 61.000 C 30.550 55.060,30.823 48.805,30.990 47.100 C 31.313 43.808,31.079 42.843,30.651 45.700 M74.400 48.000 C 75.170 48.422,76.070 48.761,76.400 48.754 C 76.730 48.746,76.280 48.407,75.400 48.000 C 73.294 47.025,72.619 47.025,74.400 48.000 M77.268 49.002 C 77.586 49.320,83.319 51.215,83.478 51.055 C 83.557 50.976,82.284 50.436,80.648 49.856 C 77.726 48.818,76.868 48.602,77.268 49.002 M88.833 52.964 C 89.158 53.285,105.732 58.401,105.900 58.233 C 105.994 58.139,103.940 57.398,101.335 56.587 C 98.731 55.775,95.001 54.591,93.047 53.955 C 89.730 52.877,88.435 52.572,88.833 52.964 M107.800 59.064 C 108.680 59.407,109.940 59.916,110.600 60.195 C 111.260 60.475,112.880 61.075,114.200 61.528 C 116.982 62.483,125.559 66.287,126.310 66.899 C 126.590 67.127,126.931 67.202,127.068 67.066 C 127.392 66.742,116.583 61.695,113.612 60.783 C 113.055 60.612,111.341 60.006,109.802 59.436 C 108.263 58.866,106.823 58.409,106.602 58.421 C 106.381 58.432,106.920 58.721,107.800 59.064 M127.600 67.383 C 127.600 67.484,128.455 68.053,129.500 68.647 C 132.690 70.463,138.000 74.032,138.000 74.361 C 138.000 74.532,138.405 74.857,138.900 75.083 C 140.400 75.768,143.974 79.201,146.068 81.967 C 147.809 84.268,149.047 86.527,151.347 91.600 C 151.696 92.370,151.986 92.777,151.991 92.504 C 152.028 90.461,147.087 82.041,143.946 78.796 C 140.055 74.774,127.600 66.079,127.600 67.383 M30.423 75.433 C 30.436 76.955,30.593 78.920,30.772 79.800 C 30.979 80.818,31.023 79.871,30.893 77.200 C 30.659 72.373,30.389 71.359,30.423 75.433 M31.264 83.400 C 31.255 84.280,31.590 86.620,32.009 88.600 C 32.790 92.297,32.690 90.667,31.788 85.000 C 31.443 82.830,31.274 82.315,31.264 83.400 M32.868 93.600 C 32.862 94.150,33.011 94.960,33.200 95.400 L 33.544 96.200 33.532 95.400 C 33.526 94.960,33.376 94.150,33.200 93.600 L 32.880 92.600 32.868 93.600 M152.051 93.600 C 152.038 93.930,152.369 95.370,152.786 96.800 C 153.202 98.230,153.553 99.040,153.566 98.600 C 153.579 98.160,153.248 96.720,152.831 95.400 C 152.414 94.080,152.063 93.270,152.051 93.600 M33.636 96.880 C 33.595 97.656,34.681 102.015,34.994 102.327 C 35.342 102.676,35.212 101.914,34.427 99.000 C 34.012 97.460,33.656 96.506,33.636 96.880 M153.898 103.400 C 154.015 105.380,154.176 107.075,154.256 107.167 C 154.528 107.481,154.305 102.200,153.995 101.000 C 153.821 100.328,153.779 101.384,153.898 103.400 M35.222 103.138 C 35.188 103.968,36.507 108.253,36.656 107.800 C 36.728 107.580,36.440 106.320,36.015 105.000 C 35.591 103.680,35.233 102.842,35.222 103.138 M154.555 112.600 C 154.556 115.460,154.620 116.578,154.697 115.083 C 154.774 113.589,154.774 111.249,154.696 109.883 C 154.618 108.518,154.555 109.740,154.555 112.600 M36.800 108.635 C 36.800 109.121,38.525 113.824,39.354 115.600 C 40.283 117.588,39.854 115.973,38.401 112.013 C 37.189 108.707,36.800 107.887,36.800 108.635 M40.141 117.600 C 40.804 119.921,45.117 129.017,45.413 128.720 C 45.568 128.565,44.291 125.786,40.855 118.800 C 40.368 117.810,40.046 117.270,40.141 117.600 M154.072 120.200 C 154.029 121.300,153.910 123.190,153.808 124.400 L 153.622 126.600 154.029 124.646 C 154.253 123.571,154.372 121.681,154.294 120.446 L 154.151 118.200 154.072 120.200 M153.263 127.800 C 153.223 128.460,153.104 129.720,152.997 130.600 L 152.803 132.200 153.223 130.860 C 153.454 130.123,153.574 128.863,153.489 128.060 C 153.352 126.766,153.326 126.737,153.263 127.800 M45.600 129.386 C 45.600 129.515,46.880 131.730,48.445 134.310 C 58.453 150.812,72.849 164.988,90.969 176.184 C 96.435 179.562,114.230 188.303,114.695 187.839 C 114.862 187.671,111.411 186.015,108.323 184.780 C 101.753 182.154,86.165 173.135,82.117 169.620 C 81.851 169.389,81.527 169.200,81.396 169.200 C 81.084 169.200,76.201 165.308,72.400 162.031 C 68.465 158.638,62.492 152.665,60.770 150.400 C 60.017 149.410,59.117 148.330,58.771 148.000 C 58.046 147.310,55.288 143.875,54.400 142.556 C 54.070 142.066,52.923 140.346,51.850 138.733 C 50.778 137.120,49.584 135.341,49.198 134.780 C 48.811 134.220,48.027 132.837,47.455 131.709 C 46.536 129.895,45.600 128.723,45.600 129.386 M152.464 133.050 C 152.429 133.518,152.305 134.508,152.189 135.250 C 151.996 136.486,152.015 136.517,152.408 135.614 C 152.645 135.072,152.768 134.082,152.683 133.414 C 152.591 132.697,152.502 132.548,152.464 133.050 M151.288 139.298 C 150.566 142.742,150.344 144.388,150.760 143.200 C 151.356 141.498,152.140 137.606,151.929 137.395 C 151.819 137.285,151.530 138.141,151.288 139.298 M149.829 145.829 C 149.681 146.415,149.638 146.972,149.732 147.066 C 149.827 147.160,150.024 146.758,150.171 146.171 C 150.319 145.585,150.362 145.028,150.268 144.934 C 150.173 144.840,149.976 145.242,149.829 145.829 M149.029 149.029 C 148.881 149.615,148.851 150.184,148.961 150.294 C 149.071 150.404,149.281 150.015,149.429 149.429 C 149.576 148.842,149.606 148.273,149.496 148.163 C 149.386 148.053,149.176 148.442,149.029 149.029 M148.297 151.600 C 148.168 152.150,147.696 153.943,147.249 155.585 C 146.802 157.226,146.502 158.635,146.582 158.715 C 146.662 158.795,146.822 158.532,146.938 158.130 C 147.053 157.729,147.531 156.083,147.999 154.474 C 148.467 152.865,148.778 151.335,148.691 151.074 C 148.604 150.813,148.426 151.050,148.297 151.600 M145.440 161.440 C 145.053 162.667,144.821 163.755,144.924 163.858 C 145.027 163.961,145.427 163.041,145.813 161.813 C 146.199 160.586,146.431 159.498,146.329 159.396 C 146.227 159.293,145.827 160.213,145.440 161.440 M143.795 166.474 C 142.153 171.561,139.323 179.493,136.924 185.735 C 135.501 189.439,134.417 192.550,134.516 192.650 C 134.615 192.749,135.192 191.518,135.798 189.915 C 136.405 188.312,137.344 185.830,137.887 184.400 C 141.707 174.330,144.962 164.829,144.687 164.553 C 144.574 164.440,144.173 165.305,143.795 166.474 M116.600 188.800 C 117.480 189.207,118.470 189.541,118.800 189.541 C 119.130 189.541,118.680 189.207,117.800 188.800 C 116.920 188.393,115.930 188.059,115.600 188.059 C 115.270 188.059,115.720 188.393,116.600 188.800 M121.600 190.545 C 121.600 190.802,130.437 193.696,130.630 193.503 C 130.733 193.401,128.860 192.661,126.468 191.858 C 122.164 190.415,121.600 190.263,121.600 190.545 M134.000 193.645 C 134.000 193.938,133.489 194.001,132.500 193.830 C 131.418 193.643,131.167 193.684,131.600 193.979 C 132.537 194.618,134.400 194.498,134.400 193.800 C 134.400 193.470,134.310 193.200,134.200 193.200 C 134.090 193.200,134.000 193.400,134.000 193.645 " stroke="none" fill="#6f935f" fill-rule="evenodd"></path><path id="path2" d="M357.000 8.441 C 356.120 8.613,354.511 8.764,353.424 8.777 C 352.337 8.790,350.447 8.972,349.224 9.183 C 348.001 9.394,345.830 9.740,344.400 9.953 C 338.717 10.799,335.595 11.342,331.000 12.284 C 328.360 12.825,325.390 13.423,324.400 13.612 C 322.789 13.921,319.461 14.756,312.800 16.525 C 308.259 17.730,298.129 20.891,296.600 21.580 C 296.160 21.779,293.550 22.781,290.800 23.807 C 288.050 24.834,284.630 26.113,283.200 26.649 C 277.687 28.718,260.985 37.371,254.870 41.327 C 253.278 42.357,251.900 43.200,251.808 43.200 C 251.438 43.200,242.612 49.322,242.000 50.002 C 241.890 50.125,240.630 51.094,239.200 52.157 C 232.009 57.502,224.436 64.468,216.951 72.624 C 210.822 79.303,200.749 92.555,198.212 97.279 C 197.264 99.043,195.064 103.020,193.381 106.010 C 187.993 115.582,178.400 139.996,178.400 144.138 C 178.400 144.531,178.215 145.198,177.989 145.620 C 177.613 146.324,175.922 153.181,175.183 157.000 C 173.870 163.794,173.846 163.935,172.783 171.000 C 171.263 181.107,170.796 187.749,170.556 202.647 L 170.337 216.295 171.462 216.510 C 172.080 216.628,175.200 216.743,178.393 216.766 C 181.587 216.789,186.360 216.997,189.000 217.228 C 191.986 217.489,201.886 217.576,215.200 217.457 C 235.475 217.276,241.994 217.023,250.800 216.076 C 256.063 215.509,261.824 214.711,265.800 213.996 C 266.900 213.798,268.970 213.427,270.400 213.171 C 287.054 210.189,304.966 203.379,313.989 196.600 C 315.160 195.720,316.533 194.769,317.041 194.487 C 320.673 192.467,328.898 182.178,331.179 176.800 C 335.874 165.729,338.018 157.003,340.074 140.600 C 340.294 138.840,340.620 123.270,340.798 106.000 C 341.180 68.924,341.494 63.789,344.193 50.600 C 344.554 48.840,345.009 46.860,345.206 46.200 C 345.985 43.592,348.090 37.334,348.571 36.200 C 348.851 35.540,349.324 34.370,349.623 33.600 C 352.309 26.673,360.203 14.208,364.700 9.792 C 366.270 8.250,365.883 7.993,362.100 8.064 C 360.175 8.100,357.880 8.270,357.000 8.441 M35.595 17.213 C 35.318 17.880,35.185 18.518,35.298 18.631 C 35.411 18.745,35.619 18.379,35.760 17.819 C 35.900 17.258,36.192 16.800,36.408 16.800 C 36.623 16.800,36.800 16.620,36.800 16.400 C 36.800 15.562,36.076 16.051,35.595 17.213 M38.396 19.800 C 38.905 20.680,39.670 21.760,40.096 22.200 C 40.523 22.640,40.287 22.100,39.572 21.000 C 37.915 18.451,37.188 17.709,38.396 19.800 M42.544 25.600 C 44.291 27.809,50.491 34.000,50.957 34.000 C 51.188 34.000,50.998 33.734,50.533 33.408 C 50.069 33.083,47.832 30.878,45.563 28.508 C 43.294 26.139,41.936 24.830,42.544 25.600 M33.022 27.822 C 32.872 28.625,32.828 29.362,32.926 29.460 C 33.024 29.557,33.227 28.981,33.378 28.178 C 33.528 27.375,33.572 26.638,33.474 26.540 C 33.376 26.443,33.173 27.019,33.022 27.822 M32.222 32.222 C 32.072 33.025,32.028 33.762,32.126 33.860 C 32.224 33.957,32.427 33.381,32.578 32.578 C 32.728 31.775,32.772 31.038,32.674 30.940 C 32.576 30.843,32.373 31.419,32.222 32.222 M55.400 37.494 C 56.248 38.326,59.200 40.187,59.200 39.889 C 59.200 39.792,58.165 39.037,56.900 38.211 C 55.635 37.385,54.960 37.062,55.400 37.494 M30.629 43.629 C 30.476 44.979,30.433 46.166,30.533 46.267 C 30.634 46.367,30.844 45.347,31.000 44.000 C 31.156 42.653,31.199 41.466,31.095 41.362 C 30.991 41.258,30.781 42.278,30.629 43.629 M30.128 51.600 C 30.128 53.030,30.201 53.615,30.289 52.900 C 30.378 52.185,30.378 51.015,30.289 50.300 C 30.201 49.585,30.128 50.170,30.128 51.600 M29.769 62.800 C 29.769 67.310,29.827 69.155,29.898 66.900 C 29.970 64.645,29.970 60.955,29.898 58.700 C 29.827 56.445,29.769 58.290,29.769 62.800 M30.124 74.200 C 30.126 75.520,30.201 76.012,30.290 75.293 C 30.379 74.574,30.377 73.494,30.286 72.893 C 30.195 72.292,30.122 72.880,30.124 74.200 M30.469 79.600 C 30.456 80.150,30.595 81.320,30.777 82.200 C 30.989 83.226,31.116 83.441,31.131 82.800 C 31.144 82.250,31.005 81.080,30.823 80.200 C 30.611 79.174,30.484 78.959,30.469 79.600 M149.634 86.600 C 149.634 86.820,149.978 87.630,150.400 88.400 C 150.822 89.170,151.166 89.620,151.166 89.400 C 151.166 89.180,150.822 88.370,150.400 87.600 C 149.978 86.830,149.634 86.380,149.634 86.600 M32.087 90.800 C 32.083 91.350,32.224 92.250,32.400 92.800 C 32.831 94.144,32.831 92.692,32.400 91.000 C 32.126 89.922,32.094 89.902,32.087 90.800 M32.856 95.200 C 32.856 95.530,33.011 96.160,33.200 96.600 C 33.417 97.104,33.544 97.178,33.544 96.800 C 33.544 96.470,33.389 95.840,33.200 95.400 C 32.983 94.896,32.856 94.822,32.856 95.200 M154.514 105.800 C 154.517 106.900,154.595 107.303,154.687 106.695 C 154.779 106.086,154.777 105.186,154.682 104.695 C 154.587 104.203,154.511 104.700,154.514 105.800 M154.953 112.600 C 154.953 115.240,155.018 116.268,155.097 114.884 C 155.175 113.501,155.174 111.341,155.095 110.084 C 155.016 108.828,154.952 109.960,154.953 112.600 M154.524 119.800 C 154.526 121.120,154.601 121.612,154.690 120.893 C 154.779 120.174,154.777 119.094,154.686 118.493 C 154.595 117.892,154.522 118.480,154.524 119.800 M153.833 126.033 C 153.683 127.166,153.641 128.174,153.739 128.272 C 153.837 128.371,154.045 127.528,154.200 126.400 C 154.355 125.272,154.398 124.264,154.294 124.161 C 154.191 124.058,153.984 124.900,153.833 126.033 M48.524 135.000 C 48.862 135.660,49.438 136.560,49.804 137.000 C 50.170 137.440,50.065 137.080,49.570 136.200 C 48.480 134.258,47.664 133.322,48.524 135.000 M152.200 136.400 C 152.048 137.091,152.007 137.741,152.109 137.842 C 152.211 137.944,152.409 137.453,152.550 136.750 C 152.883 135.083,152.560 134.760,152.200 136.400 M151.400 140.400 C 151.248 141.091,151.207 141.741,151.309 141.842 C 151.411 141.944,151.609 141.453,151.750 140.750 C 152.083 139.083,151.760 138.760,151.400 140.400 M53.224 142.174 C 54.478 143.920,57.259 147.170,56.498 146.000 C 55.577 144.583,52.326 140.400,52.147 140.400 C 52.039 140.400,52.524 141.198,53.224 142.174 M150.629 143.829 C 150.481 144.415,150.438 144.972,150.532 145.066 C 150.627 145.160,150.824 144.758,150.971 144.171 C 151.119 143.585,151.162 143.028,151.068 142.934 C 150.973 142.840,150.776 143.242,150.629 143.829 M149.829 147.029 C 149.681 147.615,149.638 148.172,149.732 148.266 C 149.827 148.360,150.024 147.958,150.171 147.371 C 150.319 146.785,150.362 146.228,150.268 146.134 C 150.173 146.040,149.976 146.442,149.829 147.029 M59.900 150.600 C 60.804 151.700,63.666 154.670,66.261 157.200 C 70.810 161.636,70.772 161.586,65.210 155.800 C 57.771 148.061,57.986 148.272,59.900 150.600 M71.200 161.725 C 71.200 161.794,71.785 162.379,72.500 163.025 L 73.800 164.200 72.625 162.900 C 71.530 161.688,71.200 161.416,71.200 161.725 M74.000 164.125 C 74.000 164.194,74.585 164.779,75.300 165.425 L 76.600 166.600 75.425 165.300 C 74.330 164.088,74.000 163.816,74.000 164.125 M76.800 166.525 C 76.800 166.624,77.461 167.209,78.268 167.825 C 79.076 168.441,79.611 168.741,79.456 168.491 C 79.140 167.979,76.800 166.247,76.800 166.525 M81.379 169.966 C 81.680 170.452,85.200 172.932,85.200 172.657 C 85.200 172.557,84.281 171.815,83.158 171.008 C 82.035 170.201,81.235 169.732,81.379 169.966 M88.800 175.164 C 89.350 175.614,89.980 175.983,90.200 175.985 C 90.628 175.988,89.905 175.434,88.600 174.760 C 88.069 174.485,88.136 174.621,88.800 175.164 M94.800 178.579 C 94.800 178.689,95.340 179.059,96.000 179.400 C 96.660 179.741,97.200 179.931,97.200 179.821 C 97.200 179.711,96.660 179.341,96.000 179.000 C 95.340 178.659,94.800 178.469,94.800 178.579 " stroke="none" fill="#aeb831" fill-rule="evenodd"></path><path id="path3" d="M359.800 7.669 C 357.160 7.865,354.190 8.193,353.200 8.398 C 351.668 8.716,351.847 8.742,354.400 8.571 C 366.309 7.772,366.709 7.819,364.700 9.792 C 360.203 14.208,352.309 26.673,349.623 33.600 C 349.324 34.370,348.851 35.540,348.571 36.200 C 348.090 37.334,345.985 43.592,345.206 46.200 C 344.249 49.408,342.402 59.748,342.455 61.600 C 342.487 62.709,342.570 62.542,342.854 60.800 C 346.420 38.917,352.332 25.221,364.153 11.458 C 365.827 9.510,367.096 7.755,366.974 7.558 C 366.729 7.162,366.627 7.163,359.800 7.669 M345.400 9.257 C 336.220 10.635,324.076 12.977,323.627 13.455 C 323.319 13.783,325.306 13.469,331.000 12.293 C 333.640 11.747,337.150 11.089,338.800 10.831 C 340.450 10.573,342.669 10.190,343.731 9.981 C 344.792 9.771,346.322 9.582,347.131 9.560 C 347.939 9.538,349.050 9.376,349.600 9.200 C 351.031 8.742,348.612 8.775,345.400 9.257 M317.400 14.788 C 304.526 18.079,291.810 22.407,279.600 27.653 C 277.011 28.765,263.935 35.257,262.207 36.288 C 261.551 36.680,259.211 38.068,257.007 39.373 C 241.275 48.688,225.641 61.484,215.188 73.599 C 213.765 75.249,212.382 76.829,212.117 77.111 C 208.581 80.860,199.474 93.947,195.075 101.600 C 193.641 104.096,187.797 115.737,186.843 118.000 C 181.248 131.267,177.454 143.480,174.664 157.200 C 172.437 168.148,170.571 181.962,171.434 181.099 C 171.563 180.970,171.840 179.185,172.049 177.132 C 172.428 173.422,172.756 170.974,173.542 166.000 C 173.913 163.654,174.183 162.176,175.183 157.000 C 175.922 153.181,177.613 146.324,177.989 145.620 C 178.215 145.198,178.400 144.531,178.400 144.138 C 178.400 139.996,187.993 115.582,193.381 106.010 C 195.064 103.020,197.264 99.043,198.212 97.279 C 200.749 92.555,210.822 79.303,216.951 72.624 C 224.436 64.468,232.009 57.502,239.200 52.157 C 240.630 51.094,241.890 50.125,242.000 50.002 C 242.612 49.322,251.438 43.200,251.808 43.200 C 251.900 43.200,253.278 42.357,254.870 41.327 C 260.985 37.371,277.687 28.718,283.200 26.649 C 284.630 26.113,288.050 24.834,290.800 23.807 C 293.550 22.781,296.160 21.779,296.600 21.580 C 299.210 20.404,311.514 16.760,319.600 14.769 C 321.470 14.308,323.075 13.857,323.167 13.765 C 323.561 13.374,321.504 13.739,317.400 14.788 M35.582 16.434 C 35.336 16.893,35.240 17.373,35.368 17.501 C 35.495 17.629,35.600 17.536,35.600 17.295 C 35.600 17.054,35.883 16.574,36.229 16.229 C 36.574 15.883,36.671 15.600,36.443 15.600 C 36.215 15.600,35.827 15.975,35.582 16.434 M41.554 23.936 C 41.999 24.560,42.679 25.325,43.065 25.636 C 43.452 25.946,43.160 25.435,42.417 24.500 C 40.891 22.580,40.325 22.210,41.554 23.936 M47.000 30.000 C 48.971 31.980,50.673 33.600,50.783 33.600 C 50.893 33.600,49.371 31.980,47.400 30.000 C 45.429 28.020,43.727 26.400,43.617 26.400 C 43.507 26.400,45.029 28.020,47.000 30.000 M52.144 34.709 C 52.460 35.221,54.800 36.953,54.800 36.675 C 54.800 36.576,54.139 35.991,53.332 35.375 C 52.524 34.759,51.989 34.459,52.144 34.709 M30.893 40.000 C 30.893 40.770,30.975 41.085,31.076 40.700 C 31.176 40.315,31.176 39.685,31.076 39.300 C 30.975 38.915,30.893 39.230,30.893 40.000 M62.800 41.798 C 62.800 42.065,68.449 44.885,68.627 44.706 C 68.707 44.627,67.428 43.897,65.786 43.084 C 64.144 42.271,62.800 41.693,62.800 41.798 M69.200 44.989 C 69.200 45.306,72.100 46.433,72.328 46.205 C 72.441 46.092,72.435 46.000,72.316 46.000 C 72.196 46.000,71.446 45.728,70.649 45.395 C 69.852 45.062,69.200 44.879,69.200 44.989 M30.109 47.600 C 30.109 48.590,30.187 48.995,30.282 48.500 C 30.378 48.005,30.378 47.195,30.282 46.700 C 30.187 46.205,30.109 46.610,30.109 47.600 M29.714 53.000 C 29.717 54.100,29.795 54.503,29.887 53.895 C 29.979 53.286,29.977 52.386,29.882 51.895 C 29.787 51.403,29.711 51.900,29.714 53.000 M341.903 65.000 C 341.741 65.880,341.630 67.680,341.655 69.000 L 341.701 71.400 342.064 68.600 C 342.507 65.183,342.382 62.395,341.903 65.000 M124.033 64.949 C 124.445 65.317,126.800 66.400,126.800 66.221 C 126.800 65.990,124.582 64.800,124.153 64.800 C 123.996 64.800,123.942 64.867,124.033 64.949 M132.200 69.407 C 132.640 69.766,133.360 70.235,133.800 70.451 L 134.600 70.844 133.800 70.193 C 133.360 69.834,132.640 69.365,132.200 69.149 L 131.400 68.756 132.200 69.407 M29.714 72.600 C 29.717 73.700,29.795 74.103,29.887 73.495 C 29.979 72.886,29.977 71.986,29.882 71.495 C 29.787 71.003,29.711 71.500,29.714 72.600 M341.054 75.456 C 340.693 78.091,340.737 133.396,341.100 133.033 C 341.326 132.807,341.580 73.600,341.354 73.600 C 341.329 73.600,341.194 74.435,341.054 75.456 M140.800 75.325 C 140.800 75.394,141.385 75.979,142.100 76.625 L 143.400 77.800 142.225 76.500 C 141.130 75.288,140.800 75.016,140.800 75.325 M30.101 77.800 C 30.105 78.680,30.187 78.993,30.283 78.495 C 30.379 77.998,30.375 77.278,30.275 76.895 C 30.175 76.513,30.096 76.920,30.101 77.800 M145.514 80.075 C 146.236 80.932,147.377 82.525,148.048 83.616 C 148.719 84.707,149.349 85.600,149.446 85.600 C 149.906 85.600,147.607 82.159,146.000 80.442 C 145.010 79.384,144.791 79.219,145.514 80.075 M30.893 84.800 C 30.893 85.570,30.975 85.885,31.076 85.500 C 31.176 85.115,31.176 84.485,31.076 84.100 C 30.975 83.715,30.893 84.030,30.893 84.800 M154.501 102.600 C 154.505 103.480,154.587 103.793,154.683 103.295 C 154.779 102.798,154.775 102.078,154.675 101.695 C 154.575 101.313,154.496 101.720,154.501 102.600 M154.901 106.600 C 154.905 107.480,154.987 107.793,155.083 107.295 C 155.179 106.798,155.175 106.078,155.075 105.695 C 154.975 105.313,154.896 105.720,154.901 106.600 M154.901 118.600 C 154.905 119.480,154.987 119.793,155.083 119.295 C 155.179 118.798,155.175 118.078,155.075 117.695 C 154.975 117.313,154.896 117.720,154.901 118.600 M154.493 123.200 C 154.493 123.970,154.575 124.285,154.676 123.900 C 154.776 123.515,154.776 122.885,154.676 122.500 C 154.575 122.115,154.493 122.430,154.493 123.200 M43.800 127.200 C 44.141 127.860,44.511 128.400,44.621 128.400 C 44.731 128.400,44.541 127.860,44.200 127.200 C 43.859 126.540,43.489 126.000,43.379 126.000 C 43.269 126.000,43.459 126.540,43.800 127.200 M47.800 134.400 C 48.141 135.060,48.511 135.600,48.621 135.600 C 48.731 135.600,48.541 135.060,48.200 134.400 C 47.859 133.740,47.489 133.200,47.379 133.200 C 47.269 133.200,47.459 133.740,47.800 134.400 M340.277 138.200 C 339.797 142.896,339.174 147.684,338.738 150.022 C 338.510 151.244,338.390 152.684,338.472 153.222 C 338.758 155.121,340.984 138.656,340.718 136.600 C 340.620 135.840,340.458 136.427,340.277 138.200 M65.000 156.400 C 67.633 159.040,69.877 161.200,69.987 161.200 C 70.097 161.200,68.033 159.040,65.400 156.400 C 62.767 153.760,60.523 151.600,60.413 151.600 C 60.303 151.600,62.367 153.760,65.000 156.400 M337.840 155.200 C 337.698 155.750,337.324 157.370,337.009 158.800 C 335.726 164.629,333.737 170.767,331.179 176.800 C 328.898 182.178,320.673 192.467,317.041 194.487 C 316.533 194.769,315.160 195.720,313.989 196.600 C 304.966 203.379,287.054 210.189,270.400 213.171 C 264.985 214.141,263.728 214.357,261.200 214.752 C 259.770 214.975,256.890 215.347,254.800 215.579 C 252.710 215.810,249.920 216.119,248.600 216.267 C 247.280 216.415,246.557 216.616,246.993 216.715 C 248.766 217.116,263.069 215.162,272.944 213.168 C 288.135 210.102,303.521 204.430,311.796 198.844 C 312.810 198.160,313.731 197.600,313.841 197.600 C 314.329 197.600,320.009 192.787,322.661 190.126 C 328.166 184.603,331.536 178.616,335.004 168.200 C 336.283 164.360,338.485 155.242,338.272 154.668 C 338.177 154.411,337.982 154.650,337.840 155.200 M70.800 161.725 C 70.800 161.794,71.385 162.379,72.100 163.025 L 73.400 164.200 72.225 162.900 C 71.130 161.688,70.800 161.416,70.800 161.725 M73.600 164.125 C 73.600 164.194,74.185 164.779,74.900 165.425 L 76.200 166.600 75.025 165.300 C 73.930 164.088,73.600 163.816,73.600 164.125 M79.600 168.925 C 79.600 169.024,80.261 169.609,81.068 170.225 C 81.876 170.841,82.411 171.141,82.256 170.891 C 81.940 170.379,79.600 168.647,79.600 168.925 M90.400 176.420 C 91.787 177.361,92.578 177.635,91.600 176.836 C 91.050 176.386,90.420 176.017,90.200 176.015 C 89.980 176.013,90.070 176.196,90.400 176.420 M97.200 180.179 C 97.200 180.289,97.740 180.659,98.400 181.000 C 99.060 181.341,99.600 181.531,99.600 181.421 C 99.600 181.311,99.060 180.941,98.400 180.600 C 97.740 180.259,97.200 180.069,97.200 180.179 M170.647 186.064 C 170.461 188.409,170.395 190.569,170.500 190.864 C 170.779 191.647,171.290 185.712,171.125 183.600 C 171.030 182.371,170.878 183.153,170.647 186.064 M169.858 202.400 C 169.370 214.651,169.529 216.582,171.033 216.663 C 171.837 216.707,171.922 216.668,171.306 216.536 L 170.412 216.346 170.306 205.073 L 170.200 193.800 169.858 202.400 M179.600 217.220 C 185.000 217.633,192.130 217.605,188.400 217.186 C 186.970 217.025,183.550 216.902,180.800 216.911 L 175.800 216.929 179.600 217.220 M236.800 217.200 C 236.095 217.656,239.032 217.662,243.400 217.213 C 246.114 216.935,246.064 216.924,241.800 216.869 C 239.380 216.838,237.130 216.987,236.800 217.200 M198.400 218.019 C 206.542 218.380,221.669 218.382,228.200 218.022 C 231.438 217.844,225.629 217.737,212.800 217.739 C 199.483 217.742,194.392 217.841,198.400 218.019 M214.346 240.987 C 214.243 241.090,211.558 241.366,208.380 241.601 C 199.044 242.289,190.716 243.223,179.800 244.803 C 178.040 245.058,175.610 245.386,174.400 245.533 L 172.200 245.800 172.064 248.400 C 171.870 252.093,173.061 262.603,174.852 273.000 C 175.621 277.463,177.614 286.212,178.862 290.600 C 179.780 293.827,182.450 301.836,183.017 303.060 C 183.338 303.754,183.600 304.444,183.600 304.593 C 183.600 305.039,185.937 310.278,188.332 315.200 C 195.079 329.065,205.358 342.990,215.760 352.356 C 216.398 352.930,217.208 353.678,217.560 354.019 C 225.852 362.034,242.587 372.518,255.800 377.976 C 265.915 382.155,280.492 386.562,289.000 388.013 C 290.100 388.201,292.530 388.617,294.400 388.938 C 296.270 389.258,299.240 389.711,301.000 389.945 C 302.760 390.178,305.640 390.560,307.400 390.795 C 311.199 391.301,331.593 391.842,332.583 391.462 C 333.143 391.247,332.665 390.552,329.991 387.699 C 320.992 378.096,315.642 367.819,312.241 353.600 C 310.506 346.346,309.369 335.854,308.210 316.400 C 307.861 310.541,306.583 298.228,306.009 295.200 C 305.822 294.210,305.446 292.050,305.175 290.400 C 304.558 286.648,302.177 277.621,301.219 275.400 C 301.029 274.960,300.394 273.340,299.807 271.800 C 292.673 253.060,277.525 244.583,245.132 241.204 C 241.335 240.807,214.713 240.620,214.346 240.987 " stroke="none" fill="#c8d339" fill-rule="evenodd"></path><path id="path4" d="M0.000 200.000 L 0.000 400.000 200.000 400.000 L 400.000 400.000 400.000 200.000 L 400.000 0.000 200.000 0.000 L 0.000 0.000 0.000 200.000 M366.974 7.558 C 367.096 7.755,365.827 9.510,364.153 11.458 C 352.276 25.286,345.456 41.271,342.845 61.400 C 341.473 71.977,341.401 73.953,341.507 97.800 C 341.729 147.671,338.418 168.164,327.530 184.303 C 324.893 188.211,315.228 197.600,313.841 197.600 C 313.731 197.600,312.810 198.160,311.796 198.844 C 288.079 214.851,238.095 221.384,173.816 216.879 L 169.831 216.600 169.668 212.800 C 169.348 205.335,170.707 182.152,172.025 172.600 C 174.771 152.701,179.396 135.660,186.843 118.000 C 192.088 105.561,205.027 84.628,212.117 77.111 C 212.382 76.829,213.765 75.249,215.188 73.599 C 225.641 61.484,241.275 48.688,257.007 39.373 C 259.211 38.068,261.551 36.680,262.207 36.288 C 274.807 28.769,300.405 18.846,318.000 14.660 C 328.651 12.126,330.923 11.648,338.000 10.448 C 340.530 10.019,344.220 9.468,346.200 9.223 C 348.180 8.978,351.150 8.594,352.800 8.369 C 355.354 8.021,361.937 7.452,365.676 7.256 C 366.268 7.225,366.852 7.361,366.974 7.558 M37.876 17.933 C 46.622 33.859,62.364 43.935,93.600 53.598 C 122.382 62.503,137.110 69.977,145.821 80.100 C 158.301 94.604,158.309 123.707,145.846 163.241 C 143.056 172.091,134.904 194.429,134.212 195.121 C 134.099 195.235,131.620 194.559,128.703 193.621 C 62.012 172.157,27.636 124.880,29.657 57.400 C 30.056 44.083,31.632 31.861,34.381 20.779 C 35.875 14.754,36.051 14.610,37.876 17.933 M245.132 241.204 C 277.525 244.583,292.673 253.060,299.807 271.800 C 300.394 273.340,301.029 274.960,301.219 275.400 C 302.177 277.621,304.558 286.648,305.175 290.400 C 305.446 292.050,305.822 294.210,306.009 295.200 C 306.583 298.228,307.861 310.541,308.210 316.400 C 309.369 335.854,310.506 346.346,312.241 353.600 C 315.642 367.819,320.992 378.096,329.991 387.699 C 332.665 390.552,333.143 391.247,332.583 391.462 C 331.593 391.842,311.199 391.301,307.400 390.795 C 305.640 390.560,302.760 390.178,301.000 389.945 C 299.240 389.711,296.270 389.258,294.400 388.938 C 292.530 388.617,290.100 388.201,289.000 388.013 C 280.492 386.562,265.915 382.155,255.800 377.976 C 242.587 372.518,225.852 362.034,217.560 354.019 C 217.208 353.678,216.398 352.930,215.760 352.356 C 205.358 342.990,195.079 329.065,188.332 315.200 C 185.937 310.278,183.600 305.039,183.600 304.593 C 183.600 304.444,183.338 303.754,183.017 303.060 C 182.450 301.836,179.780 293.827,178.862 290.600 C 176.563 282.515,174.322 271.272,173.243 262.400 C 172.173 253.614,171.937 250.810,172.064 248.400 L 172.200 245.800 174.400 245.533 C 175.610 245.386,178.040 245.058,179.800 244.803 C 190.716 243.223,199.044 242.289,208.380 241.601 C 211.558 241.366,214.243 241.090,214.346 240.987 C 214.713 240.620,241.335 240.807,245.132 241.204 " stroke="none" fill="#f0f5f9" fill-rule="evenodd"></path></g></svg>